<svg version="1.1" id="Layer_1" xmlns="http://www.w3.org/2000/svg" xmlns:xlink="http://www.w3.org/1999/xlink" x="0px" y="0px"
	 width="100%" viewBox="0 0 512 512" enable-background="new 0 0 512 512" xml:space="preserve">
<path fill="#000000" opacity="1.000000" stroke="none" 
	d="
M1.000000,184.000000 
	C1.000000,122.666664 1.000000,61.833332 1.000000,1.000000 
	C171.666672,1.000000 342.333344,1.000000 513.000000,1.000000 
	C513.000000,171.666672 513.000000,342.333344 513.000000,513.000000 
	C342.333344,513.000000 171.666672,513.000000 1.000000,513.000000 
	C1.000000,403.500000 1.000000,294.000000 1.000000,184.000000 
M445.352997,294.880402 
	C459.461487,276.999664 468.500153,256.984131 471.945557,234.328033 
	C474.739532,215.955444 474.965790,197.530411 474.703156,179.047089 
	C474.508026,165.314728 472.279755,151.880844 468.242279,138.779282 
	C456.169495,99.603287 430.800232,71.067078 395.588257,51.502052 
	C338.883667,19.994986 277.805389,9.961782 214.074112,20.323013 
	C160.820892,28.980755 117.374329,53.564007 93.007401,104.621155 
	C91.794174,107.163284 89.797455,109.193085 86.916824,109.191673 
	C82.915131,109.189705 81.280190,111.381073 80.430000,114.767227 
	C79.703018,117.662605 79.053558,120.582085 78.193893,123.437943 
	C77.590767,125.441574 77.737549,126.959198 79.698227,128.123520 
	C82.976501,130.070282 83.737114,133.147430 83.460175,136.733429 
	C82.279030,152.028030 81.015015,167.312454 73.423203,181.134125 
	C70.533066,186.395889 70.971878,191.219772 74.252434,196.132751 
	C76.653664,199.728821 78.831711,203.492386 80.867081,207.310394 
	C85.029892,215.119141 84.951843,222.923172 80.346619,230.573761 
	C77.508728,235.288300 74.384132,239.794495 70.934898,244.095917 
	C63.464359,253.412216 54.112473,260.648071 44.994564,268.192444 
	C36.223900,275.449463 37.386383,283.614410 47.619892,288.431305 
	C50.776360,289.917053 54.145996,290.943573 57.341675,292.353455 
	C68.952873,297.476166 72.027916,307.948334 65.047386,318.561493 
	C62.654442,322.199738 59.845654,325.511871 56.294891,328.081665 
	C53.361935,330.204315 53.450268,332.055511 56.159760,334.406219 
	C59.298756,337.129547 62.320251,340.033234 65.083595,343.134155 
	C69.293312,347.858154 69.022255,351.704224 64.568535,356.238342 
	C59.749908,361.143951 59.764690,361.236542 65.862419,364.348145 
	C76.745308,369.901550 80.105583,378.248169 74.424156,388.010498 
	C65.935493,402.596588 73.994202,418.778717 86.644791,424.456421 
	C93.920036,427.721680 101.500648,429.218323 109.450455,429.022430 
	C121.949059,428.714417 134.272293,426.780670 146.616013,425.040649 
	C157.976059,423.439301 169.270264,421.611572 180.794861,424.197968 
	C199.123108,428.311218 212.262024,439.425629 222.770065,454.329529 
	C230.215149,464.889069 235.421036,476.594940 240.436005,488.416199 
	C243.639816,495.968201 248.898895,498.679596 256.764679,496.691101 
	C282.247131,490.249207 307.702972,483.701874 333.160522,477.162048 
	C356.042603,471.283844 378.932404,465.434174 401.780731,459.427063 
	C412.292023,456.663513 415.380310,450.601959 411.924316,440.311798 
	C410.069305,434.788452 408.170563,429.279694 406.339569,423.748474 
	C405.239502,420.425385 404.906952,416.988007 407.762451,414.459686 
	C410.437958,412.090790 410.730652,409.625519 409.691986,406.459595 
	C408.765167,403.634766 408.203705,400.688416 407.516022,397.787354 
	C407.054413,395.840057 405.972260,394.497192 403.999634,393.968689 
	C398.833710,392.584656 397.309418,388.744568 396.583679,383.898743 
	C395.515289,376.764923 395.454926,369.625183 395.668884,362.473663 
	C396.011627,351.018250 399.821350,341.143799 408.576996,333.227936 
	C421.559662,321.490479 433.991211,309.180878 445.352997,294.880402 
M484.303741,287.515961 
	C481.803894,288.247864 480.315369,290.081116 479.867493,292.460388 
	C478.241577,301.097839 478.519073,309.969482 487.401245,314.445343 
	C497.583038,319.576172 502.310242,318.127136 504.480652,306.851624 
	C504.794067,305.223480 504.972717,303.565826 505.142822,301.914551 
	C505.405640,299.362885 506.155334,297.027802 508.031219,295.190399 
	C513.987610,289.356110 511.735046,282.260864 511.415894,275.417358 
	C510.470917,275.968536 509.930237,276.599274 509.559875,277.317749 
	C507.643066,281.036377 505.714111,284.412659 500.538666,281.672607 
	C498.984039,280.849518 497.259399,281.958130 495.998260,283.080475 
	C492.868103,285.865936 489.171631,287.080658 484.303741,287.515961 
z"/>
<path fill="#000000" opacity="1.000000" stroke="none" 
	d="
M188.662262,78.621719 
	C177.148621,83.540718 169.865967,91.744957 166.981995,103.541046 
	C165.714432,108.725655 162.780289,111.207146 157.634659,112.510406 
	C130.405090,119.407021 116.689171,147.757446 128.243393,173.391541 
	C130.516235,178.434067 129.956711,182.329300 127.276993,186.896835 
	C114.356674,208.919418 125.980148,236.152679 150.848221,241.970581 
	C159.656158,244.031204 168.416687,243.135239 176.511627,238.588547 
	C177.919769,237.797638 179.610107,237.221802 180.001434,235.204132 
	C179.288040,232.987915 177.075851,232.178818 175.505402,230.781464 
	C160.958572,217.837860 161.063080,195.578384 175.776932,183.302246 
	C181.081360,178.876602 185.518188,178.730850 188.891144,182.871429 
	C192.101501,186.812439 191.216522,190.833298 186.161758,195.272003 
	C177.086563,203.241226 179.170044,216.927734 190.477005,221.223343 
	C196.225052,223.407043 198.424973,226.813110 198.452057,232.809250 
	C198.526489,249.287247 211.687439,261.777771 228.274902,260.813629 
	C234.958328,260.425140 240.132095,261.203705 245.250565,266.412720 
	C252.384796,273.673126 263.050018,273.672943 271.238525,267.020233 
	C276.460083,262.778015 280.737122,262.654938 286.556671,265.789551 
	C303.495117,274.913239 323.437653,267.932404 331.598816,250.531250 
	C332.164337,249.325455 332.532257,248.000473 333.247437,246.896347 
	C335.465424,243.472321 338.597382,241.685349 342.610962,243.208237 
	C346.688690,244.755493 348.499329,247.958542 347.574432,252.367233 
	C347.269531,253.820587 346.913361,255.380936 346.122681,256.593781 
	C343.065002,261.283783 345.220490,263.644897 349.471375,265.863037 
	C368.726624,275.910706 392.053467,272.573608 407.748474,257.318573 
	C423.407227,242.098770 427.327911,218.478745 417.443237,198.834747 
	C416.769745,197.496292 415.990082,196.211624 415.279175,194.891510 
	C411.943085,188.696701 412.161560,186.793869 417.257721,181.711090 
	C426.122803,172.869263 430.425262,162.324585 429.856018,149.739502 
	C429.065796,132.268127 416.570801,116.432907 399.475098,112.589165 
	C393.002167,111.133820 389.717957,108.029655 387.405823,101.824593 
	C377.806732,76.063087 347.663605,67.073265 325.161896,82.858887 
	C316.233582,89.122368 314.409607,88.808815 307.843689,79.896935 
	C301.618652,71.447792 293.440399,65.677147 283.566864,62.253487 
	C280.682892,61.253468 277.961334,60.081081 276.498322,57.127487 
	C275.080475,54.265041 275.542267,51.514835 277.402985,49.150436 
	C279.503113,46.481884 282.292450,45.284634 285.803467,46.272617 
	C297.138947,49.462364 306.961945,55.232952 314.935699,63.868843 
	C317.650909,66.809509 319.759735,67.316689 323.476135,65.434357 
	C352.561462,50.702885 386.593933,62.525837 400.681549,92.143105 
	C402.129150,95.186447 403.898865,97.121979 407.231812,98.312325 
	C444.535889,111.635262 457.550598,154.538330 433.982544,186.588165 
	C431.781036,189.581955 431.594818,191.771774 433.052765,195.096985 
	C446.666229,226.145935 434.957367,261.688080 405.563660,278.622650 
	C402.234833,280.540466 400.739197,282.820892 399.976715,286.668365 
	C393.189819,320.916901 353.837738,335.753357 325.927551,314.664276 
	C322.558960,312.118927 319.341278,310.182648 314.932983,311.632751 
	C313.532684,313.565430 314.724335,315.430664 315.266602,317.265656 
	C317.341644,324.287445 319.621185,331.251190 321.578949,338.304718 
	C324.592316,349.161499 316.667877,358.742798 305.448792,357.551422 
	C297.187683,356.674164 288.972168,355.280548 280.779968,353.864410 
	C271.507019,352.261414 265.166656,346.893921 261.609009,338.171021 
	C254.565491,320.901398 247.483124,303.647644 240.407059,286.391296 
	C237.513535,279.334869 234.668472,277.478729 227.270889,277.315338 
	C211.112442,276.958466 198.359268,270.133118 189.582840,256.541107 
	C187.171082,252.806046 185.152466,252.251846 181.146942,254.116302 
	C147.693207,269.688263 109.004807,247.549515 105.870598,208.944260 
	C105.130043,199.822556 107.296722,191.067413 111.177139,182.801437 
	C112.299385,180.410843 112.723061,178.267242 111.779984,175.663406 
	C99.659225,142.197784 118.755966,108.113907 148.633530,98.504181 
	C151.094467,97.712662 152.492783,96.117287 153.318558,93.761047 
	C161.411163,70.669983 188.332550,53.962410 216.724197,62.517895 
	C219.387833,63.320549 221.389587,62.914803 223.473404,60.925392 
	C229.570938,55.104115 236.700378,50.822208 244.588196,47.867455 
	C250.003708,45.838821 254.374115,47.476467 256.242981,52.026688 
	C258.018860,56.350464 256.031982,60.345718 250.647446,62.537392 
	C242.628464,65.801369 235.765594,70.589348 229.927124,76.985703 
	C225.365097,81.983635 223.252106,82.364967 217.211197,79.652367 
	C207.950943,75.494148 198.572495,75.119293 188.662262,78.621719 
M271.347015,320.241547 
	C272.942902,324.087219 274.570801,327.920044 276.124939,331.782501 
	C277.470703,335.127045 279.790314,337.358643 283.358459,338.011475 
	C288.587494,338.968231 293.817383,340.040680 299.096436,340.569519 
	C304.215546,341.082336 305.441681,339.373871 303.914642,334.327545 
	C299.285278,319.029236 294.615662,303.742279 289.818787,288.495911 
	C287.748779,281.916626 282.427155,279.869751 276.087311,282.999969 
	C272.175720,284.931274 268.128540,286.616425 263.832489,287.130463 
	C259.034973,287.704498 258.957703,289.951904 260.504028,293.624298 
	C264.123138,302.219330 267.582886,310.881500 271.347015,320.241547 
M341.371033,279.258331 
	C340.231781,278.573395 338.977142,278.025085 337.974701,277.178192 
	C334.845306,274.534332 332.094849,274.578247 328.702118,277.148285 
	C323.343811,281.207184 317.028381,283.364563 310.473846,284.857208 
	C308.909882,285.213348 306.354095,284.757965 306.297119,287.447998 
	C306.244446,289.933777 307.423340,291.899323 309.730988,293.089111 
	C312.623291,294.580353 315.794159,295.318359 318.908569,294.890198 
	C324.900024,294.066467 329.170380,296.271393 333.538086,300.352997 
	C347.233337,313.151154 369.190308,310.602173 379.342529,295.429565 
	C380.596497,293.555389 382.458252,291.604706 381.009979,289.098267 
	C379.692841,286.818817 377.242249,287.322266 375.134613,287.371063 
	C363.420166,287.642181 352.402496,285.013519 341.371033,279.258331 
z"/>
<path fill="#000000" opacity="1.000000" stroke="none" 
	d="
M324.878601,111.760445 
	C344.496552,118.468552 355.590240,132.004364 358.032501,152.008057 
	C359.485138,163.906036 355.647186,174.758118 347.787170,183.924301 
	C344.757446,187.457474 341.403137,190.736465 337.993195,193.912796 
	C334.423889,197.237549 329.683624,197.260590 326.784790,194.279938 
	C323.866150,191.278900 323.966309,186.685471 327.220581,183.025284 
	C329.875580,180.039124 332.876923,177.353027 335.444427,174.298309 
	C346.093353,161.628586 344.762543,144.800919 332.337891,133.564835 
	C320.485474,122.846222 302.300110,123.372696 291.233124,134.802567 
	C289.732147,136.352737 288.491486,138.151489 287.063812,139.776718 
	C282.801117,144.629303 278.088684,144.624115 273.921173,139.777542 
	C273.161835,138.894501 272.512909,137.917389 271.770142,137.019104 
	C260.814819,123.769821 241.004456,122.164085 228.552765,133.509232 
	C215.488403,145.412613 215.040390,163.833496 227.612717,176.463699 
	C243.013046,191.934952 258.448975,207.371353 273.956299,222.735214 
	C280.492157,229.210602 280.730743,229.101425 287.445892,222.440414 
	C292.177734,217.746719 296.765015,212.891464 301.708649,208.431808 
	C306.060394,204.506104 311.242401,205.408310 314.007507,210.076416 
	C316.027527,213.486496 315.256714,216.581055 312.700531,219.188339 
	C305.936157,226.087921 299.278351,233.121582 292.125031,239.601730 
	C285.409698,245.685104 274.962372,245.643066 268.380615,239.210938 
	C249.553284,220.811737 230.527893,202.562134 212.653732,183.259796 
	C201.200546,170.891464 199.880173,155.338501 205.749039,139.669403 
	C211.778366,123.571991 223.705902,113.922234 240.548096,110.702950 
	C253.903152,108.150215 266.036713,111.525238 276.660706,119.842072 
	C279.621185,122.159622 281.512085,122.040001 284.407318,119.815125 
	C296.378510,110.615692 309.808350,107.927856 324.878601,111.760445 
z"/>
</svg>